<?xml version="1.0" encoding="UTF-8" standalone="no"?>
<!-- Created with Inkscape (http://www.inkscape.org/) -->

<svg
   version="1.1"
   id="svg2"
   width="373.21332"
   height="135.53333"
   viewBox="0 0 373.21332 135.53333"
   sodipodi:docname="spark-new-zealand-seeklogo.com.eps"
   xmlns:inkscape="http://www.inkscape.org/namespaces/inkscape"
   xmlns:sodipodi="http://sodipodi.sourceforge.net/DTD/sodipodi-0.dtd"
   xmlns="http://www.w3.org/2000/svg"
   xmlns:svg="http://www.w3.org/2000/svg">
  <defs
     id="defs6" />
  <sodipodi:namedview
     id="namedview4"
     pagecolor="#ffffff"
     bordercolor="#000000"
     borderopacity="0.25"
     inkscape:showpageshadow="2"
     inkscape:pageopacity="0.0"
     inkscape:pagecheckerboard="0"
     inkscape:deskcolor="#d1d1d1" />
  <g
     id="g8"
     inkscape:groupmode="layer"
     inkscape:label="ink_ext_XXXXXX"
     transform="matrix(1.3333333,0,0,-1.3333333,0,135.53333)">
    <g
       id="g10"
       transform="scale(0.1)">
      <path
         d="m 823.176,391.547 c 0,1.687 -0.848,3.387 -1.692,5.078 54.223,1.688 146.579,4.234 165.219,1.688 18.637,-1.688 -99.137,-5.079 -163.527,-6.766 m -33.891,-49.152 c 2.539,-0.848 5.078,-1.7 6.774,-2.54 11.867,-4.238 23.73,-8.476 35.586,-11.867 38.136,-11.863 77.105,-23.718 115.23,-36.433 -75.406,20.34 -150.816,41.523 -226.223,62.695 -0.851,0.859 -0.851,1.711 -0.851,2.559 -0.848,2.539 -2.539,4.226 -3.391,6.765 10.172,-2.539 19.496,-5.926 29.66,-8.465 13.559,-4.238 27.961,-7.629 43.215,-12.714 m 186.399,-55.911 c 2.543,-0.855 3.398,-0.855 5.093,-1.707 11.004,-3.39 22.023,-6.777 33.043,-10.168 -1.7,0 -3.39,0 -5.94,0.852 -0.84,0 -2.54,0.848 -3.38,1.699 -8.48,3.391 -17.797,5.93 -27.113,8.469 2.539,-0.852 5.086,-1.703 6.777,-2.539 -2.543,0 -4.238,0.836 -6.777,1.687 -16.11,5.078 -32.196,10.176 -47.449,14.403 -17.797,5.929 -36.442,11.015 -54.231,16.945 33.043,-9.316 66.086,-19.484 99.977,-29.641 m 38.136,-11.875 v 0 c 0.85,0 0.85,0 0.85,-0.847 0,0.847 -0.85,0.847 -0.85,0.847 v 0 m 6.78,1.7 c 0.84,0.851 1.69,0.851 2.53,0.851 0.85,-1.699 0.85,-4.238 0,-6.785 0,-1.691 -0.84,-4.23 -2.53,-5.078 -0.85,0 -3.39,0 -5.09,0.848 -23.729,5.925 -46.6,12.703 -70.319,18.632 -18.648,5.078 -37.285,10.176 -55.929,15.254 -49.141,13.555 -99.129,27.957 -148.27,41.516 -5.086,1.695 -10.172,2.547 -15.254,4.234 0,0 0,0 -0.843,0 -1.696,0.852 -3.403,0 -3.403,1.699 v 0 c 5.942,-1.699 11.867,-3.386 18.641,-5.085 18.644,-5.09 36.437,-10.168 55.082,-14.407 24.574,-6.773 49.14,-12.703 73.707,-19.48 24.574,-5.938 49.152,-12.715 73.719,-19.485 5.937,-1.707 11.867,-3.394 17.793,-5.097 9.324,-2.539 18.648,-5.078 27.964,-6.766 3.383,-0.851 5.926,-1.699 9.321,-2.551 5.931,-1.687 11.861,-4.234 17.791,-5.925 0.85,0.839 0.85,1.691 0.85,2.539 0,1.699 -1.69,1.699 -3.39,1.699 4.24,0.84 5.93,1.687 7.63,3.387 m -283.006,29.652 c -3.391,0.848 -7.621,2.547 -11.012,3.394 -2.551,5.079 -5.09,10.157 -7.629,15.254 4.246,-0.855 7.629,-2.546 11.02,-3.394 2.539,-5.09 5.082,-10.168 7.621,-15.254 M 767.25,143.273 c -11.012,13.567 -22.023,27.969 -33.047,41.524 -0.844,0.848 -1.691,1.699 -2.539,2.539 -0.844,0.848 -0.844,2.547 -1.691,4.238 -5.078,12.715 -9.321,25.418 -13.563,38.137 z m -62.699,210.149 v 0 c -0.852,0.828 0,0.828 0,0 2.551,0 5.933,-0.863 9.32,-1.711 0.852,0 2.539,-0.84 2.539,-1.691 -4.23,0.851 -7.617,1.691 -11.859,3.402 m 4.242,-134.731 c -5.094,6.77 -10.172,13.559 -15.254,20.332 -14.402,20.344 -29.656,39.825 -44.062,60.157 -0.844,1.703 -2.539,4.242 -3.391,6.781 -1.688,4.234 -3.383,8.473 -5.086,13.551 0,0.851 -0.844,1.703 -0.844,2.551 0,1.691 0,4.238 0,5.925 0,1.7 0,4.239 0,5.93 5.086,-1.691 9.321,-3.379 14.407,-4.23 l 41.515,-60.165 c 3.391,-16.941 7.621,-33.886 12.715,-50.832 v 0 0 m -20.34,-57.625 c 0,-0.839 -0.851,0.86 -0.851,0.86 -3.387,6.777 -7.622,14.394 -11.004,22.031 -4.243,7.617 -7.633,15.242 -11.868,22.871 -7.628,15.254 -16.097,30.496 -23.73,45.754 0,7.625 -0.844,16.102 -0.844,23.727 16.946,-37.286 33.043,-76.258 48.297,-115.243 m -49.144,188.954 9.324,-13.551 c -3.391,0.836 -5.93,1.687 -9.324,3.386 0,3.387 0,6.778 0,10.165 m -8.481,227.918 c 0,0.847 2.551,3.398 4.246,4.242 9.324,9.316 17.793,19.488 27.114,28.804 4.238,4.243 7.621,8.477 11.867,12.707 5.925,6.786 12.703,13.563 19.484,20.344 9.316,10.16 17.793,19.488 27.113,28.801 1.688,1.691 2.547,2.543 4.243,4.242 10.16,11.012 21.175,21.18 32.195,32.195 5.078,5.082 11.008,10.168 16.09,16.102 16.105,16.086 32.207,31.34 49.148,46.605 2.539,2.54 5.93,5.079 8.469,7.618 8.476,7.621 16.945,15.254 25.426,22.875 5.925,5.086 11.863,10.172 17.793,14.406 5.925,5.086 11.863,9.324 17.793,14.402 v 0 c -31.356,-33.043 -63.551,-65.238 -95.75,-98.285 -7.629,-8.469 -16.098,-16.101 -23.719,-24.566 -1.703,-1.703 -2.551,-2.547 -4.242,-4.242 -0.848,-0.852 -0.848,-1.696 -1.696,-2.54 -38.125,-38.125 -76.261,-76.261 -115.23,-115.234 -4.234,-4.234 -8.469,-7.629 -11.863,-11.867 -0.848,-0.844 -1.696,-1.688 -3.391,-3.383 l -0.844,-0.851 c -2.539,4.234 -4.246,5.085 -4.246,7.625 v 0 m -0.84,49.148 c 0,0.84 0,2.547 0,3.391 0,0.847 1.696,1.695 2.547,2.539 2.539,2.543 5.078,5.082 7.621,6.777 10.172,9.32 21.188,18.637 31.348,27.965 3.391,3.383 6.781,5.926 10.172,9.32 1.691,1.692 3.387,3.387 5.082,4.231 8.476,7.625 17.793,15.254 26.269,22.879 -13.558,-14.407 -27.964,-29.661 -41.523,-44.063 -10.16,-11.012 -21.176,-22.027 -31.348,-33.039 -3.386,-3.395 -6.777,-7.625 -10.168,-11.016 0,3.391 0,7.621 0,11.016 m 38.977,-42.367 c -9.324,-9.321 -17.793,-17.789 -26.262,-27.114 l -0.855,-0.847 c 0,0 0,-0.848 -0.848,-0.848 0,0 -0.844,0.848 0,0.848 l 0.848,0.847 c 18.648,17.793 37.289,36.43 55.925,55.079 -9.32,-8.477 -19.488,-18.649 -28.808,-27.965 M 656.254,474.57 c -1.691,0.852 -4.238,1.7 -5.926,2.539 0.844,0.852 2.539,1.7 3.383,2.551 v 0 c 0.852,-1.699 1.695,-3.39 2.543,-5.09 m 12.711,81.34 c 3.39,2.539 6.781,5.93 9.32,7.633 12.715,11.004 24.57,21.176 37.281,31.34 3.387,2.543 5.926,5.09 9.329,7.629 9.308,7.621 17.785,16.097 27.101,24.574 23.731,22.027 47.453,43.211 72.027,65.246 11.868,11.004 23.719,22.023 36.43,32.195 17.793,16.102 36.442,32.188 55.07,47.453 6.786,5.079 13.559,10.161 20.34,14.403 -10.172,-17.801 -25.418,-31.363 -40.672,-44.063 -3.382,-2.547 -5.929,-5.093 -9.312,-7.632 -11.02,-10.161 -22.887,-19.485 -34.75,-29.657 l -0.848,-0.843 c -5.926,-5.086 -12.699,-11.02 -19.484,-16.95 -11.856,-10.16 -24.567,-20.332 -37.277,-31.347 -11.864,-11.012 -24.575,-21.18 -36.43,-31.352 -5.938,-5.078 -11.863,-10.16 -18.645,-16.101 -11.863,-10.161 -24.574,-21.176 -36.437,-31.344 -17.793,-16.102 -37.278,-30.504 -55.922,-46.61 -0.844,0 -3.383,0.86 -4.238,1.7 0,0 0,0 0,0.839 0,0.86 1.703,0.86 1.703,1.711 8.465,6.774 16.945,14.403 25.414,21.176 m 245.723,154.215 c 0.835,0.844 2.539,2.539 2.539,2.539 0,0 -0.844,0.848 -1.696,2.539 6.778,4.238 14.407,9.317 22.028,12.715 7.632,3.383 16.097,5.926 24.57,9.309 12.711,4.234 25.422,8.484 38.981,12.714 3.39,0.848 5.93,1.696 9.32,2.539 1.69,0 3.39,0 4.24,0.848 0,0 0,0 0,-0.848 -2.55,-2.539 -6.79,-4.23 -10.17,-5.925 -7.625,-4.235 -15.258,-7.633 -22.879,-11.02 -4.234,-1.691 -8.476,-3.387 -12.711,-5.078 -4.242,-1.695 -8.476,-3.391 -12.711,-5.082 -11.863,-5.09 -33.89,-15.25 -35.586,-16.945 -8.472,-4.242 -17.793,-9.328 -25.422,-13.559 2.543,2.539 6.786,5.926 11.02,9.317 3.383,0.843 5.93,3.398 8.477,5.937 m 93.192,59.301 c 1.7,0 3.39,0.847 5.09,0.847 3.39,0.856 6.78,0.856 10.16,0 0.85,0 1.7,0 1.7,-0.847 0.85,0 1.69,0 2.54,0 0.85,0 2.55,-1.696 3.4,-2.539 2.54,-1.696 4.23,-4.235 5.92,-6.774 0.85,-1.691 1.7,-2.543 1.7,-4.242 0,-1.695 0,-4.234 0,-5.93 -1.7,-11.019 -11.02,-16.097 -19.49,-20.336 -0.85,0 -1.69,-0.843 -1.69,-0.843 -0.85,0 -1.7,-0.844 -2.54,-0.844 -0.85,-0.852 -3.4,-1.695 -3.4,-1.695 -0.84,0 -1.69,0.843 -3.39,0.843 1.7,0.852 4.24,1.696 5.09,2.539 7.63,4.239 13.55,8.473 19.49,13.563 2.54,2.543 4.23,6.773 4.23,11.008 0,5.09 -3.38,9.324 -5.92,11.867 -0.85,0.844 -1.7,2.539 -3.4,2.539 -1.69,0.844 -3.39,1.691 -5.08,1.691 -5.08,0.856 -11.02,0 -15.25,-0.847 -9.321,-1.696 -18.642,-4.235 -27.114,-6.774 -11.863,-3.386 -22.879,-7.632 -33.895,-11.863 18.637,6.781 40.672,14.402 61.849,18.637 M 971.449,708.43 c -18.636,-10.172 -37.273,-19.496 -55.918,-29.66 -2.547,-1.692 -5.086,-2.547 -7.625,-4.243 -16.097,-8.464 -32.199,-16.941 -47.453,-25.414 0.848,0.852 1.695,1.696 3.391,2.543 16.097,11.016 33.051,20.332 49.988,29.653 5.09,2.546 9.32,5.086 14.406,6.781 5.086,2.547 9.321,4.242 14.403,6.781 9.328,5.082 18.636,9.317 28.808,13.559 0,0.843 0,0 0,0 m -19.48,-26.27 c -1.696,-1.695 -4.239,-3.39 -6.778,-5.082 -16.953,-12.711 -33.05,-25.422 -49.152,-38.137 -37.277,-29.652 -72.863,-60.156 -108.445,-91.507 -16.957,-15.25 -34.746,-29.645 -51.688,-44.899 -0.851,-0.859 -0.851,-0.859 -1.703,-0.859 -13.551,4.25 -26.269,9.328 -39.816,13.566 0,0 0,0.848 0.847,0.848 1.696,1.699 4.235,3.39 5.926,5.078 6.774,5.93 14.406,12.715 21.18,18.645 5.094,4.234 9.324,8.476 14.406,12.707 2.551,1.695 4.246,4.238 6.785,5.929 11.856,10.172 24.567,20.336 36.43,29.656 2.539,1.696 5.082,3.391 8.469,5.086 52.539,30.5 107.609,59.313 163.539,88.969 M 863.844,433.059 c 0.844,0 2.539,-0.848 3.383,-0.848 2.554,-0.852 5.937,-2.539 9.328,-3.391 0.843,0 1.691,0 1.691,-0.851 -11.019,4.242 -47.449,16.105 -57.609,20.332 -33.043,11.867 -65.25,22.883 -98.297,34.75 0,0.836 0.859,0.836 1.691,0.836 37.293,-14.395 100.836,-37.274 139.813,-50.828 m -99.981,38.125 c 27.961,-9.317 80.492,-27.961 109.301,-37.286 0.852,0 1.695,-0.839 2.543,-0.839 0.848,0 1.691,0 2.539,-0.848 -0.848,-0.852 -2.539,-0.852 -3.387,0 -0.843,0 -1.695,0.848 -1.695,0.848 -28.809,9.316 -81.34,27.957 -109.301,38.125 v 0 m -49.14,13.566 c -13.563,4.227 -27.121,9.313 -39.828,13.547 -0.84,0 0,0.84 0.851,0.84 0.852,0 0.852,0.859 1.695,0.859 12.7,-5.094 26.258,-9.32 38.969,-14.398 -0.844,0 -1.687,-0.848 -1.687,-0.848 m -48.297,-43.215 c -0.852,-0.851 -1.696,-1.699 -3.391,-2.551 l -0.847,-0.839 c -0.844,2.539 -1.692,4.23 -2.547,6.769 1.703,-1.691 4.242,-2.539 6.785,-3.379 m 11.015,-11.027 c -2.546,0.851 -5.937,1.703 -8.476,2.551 1.695,1.699 2.539,2.546 4.234,4.238 h 0.856 c 0.84,-1.692 2.543,-4.238 3.386,-6.789 m 16.946,36.445 c -2.539,-2.535 -5.078,-4.246 -7.629,-6.785 -6.778,3.387 -13.559,6.785 -21.184,9.324 -2.539,5.078 -4.23,10.168 -6.769,14.395 0.836,1.711 2.539,2.551 4.23,3.398 12.711,-5.074 26.262,-10.176 38.973,-14.402 -1.695,-1.699 -4.235,-3.391 -7.621,-5.93 m 19.484,-47.461 c 0,0 0.852,0 0,0 -9.32,2.551 -18.637,5.938 -27.965,8.477 -0.843,1.703 -1.691,3.39 -2.539,5.09 1.696,0 2.539,-0.848 3.391,-1.7 9.32,-4.226 18.637,-7.617 27.113,-11.867 m -1.691,-61.844 c -4.246,0.852 -7.629,2.54 -11.867,3.387 -1.692,3.391 -3.383,5.93 -5.079,9.317 4.235,-1.688 8.465,-2.539 12.7,-3.387 1.707,-3.391 3.398,-5.93 4.246,-9.317 m -14.407,46.602 c 9.329,-2.551 19.489,-5.09 28.809,-7.625 l -0.844,-0.852 c -9.328,2.54 -18.636,5.926 -27.965,8.477 M 775.727,96.6719 c 1.695,-2.5391 4.234,-5.9297 5.929,-8.4649 5.938,-7.6289 11.864,-15.2578 16.942,-22.8828 2.55,-4.2304 5.929,-7.6172 7.632,-12.707 0,-0.8399 -0.843,0.8437 -0.843,0.8437 -5.938,6.7852 -11.867,13.5625 -16.957,20.3399 -5.93,7.6367 -10.164,16.9414 -15.25,25.418 0.851,-0.8477 1.699,-1.6993 2.547,-2.5469 M 612.203,261.047 c -1.707,3.398 -5.094,11.875 -8.48,22.879 -0.848,4.242 -1.692,7.629 -2.539,11.867 6.777,-11.867 13.558,-26.27 20.332,-38.977 0.847,-1.699 1.691,-3.386 2.543,-5.925 v 0 c 0,-1.7 0,-4.239 0,-5.926 0,-2.539 0,-5.09 0,-7.641 -4.239,9.328 -9.317,19.492 -11.856,23.723 m -16.098,76.258 c 0.844,0 0.844,-0.836 1.688,-1.688 0,-0.851 0.852,-0.851 1.695,-1.699 0,-0.84 0,-1.691 0.848,-1.691 0.848,-1.688 1.695,-4.239 2.539,-5.926 -3.387,3.387 -5.082,6.777 -6.77,11.004 m -1.707,285.539 c -0.839,0.847 -1.695,2.543 -1.695,3.386 0,0.856 0,2.551 0,4.247 0,3.386 0,7.621 -0.844,11.007 0.844,-2.543 2.539,-5.925 4.246,-8.468 0.844,-0.844 1.688,-2.539 1.688,-3.383 0,-1.707 0,-4.246 0,-5.942 0,-0.847 0,-1.691 0,-1.691 0,-0.848 -1.688,-1.695 -2.551,-1.695 0,0 0,1.695 -0.844,2.539 m -2.539,25.426 c 1.7,-3.391 3.383,-7.633 5.934,-11.868 0,-0.843 0,-2.539 0,-4.23 -1.688,4.23 -3.395,8.465 -5.934,12.707 0,1.695 0,2.547 0,3.391 M 604.57,363.574 c 0.844,-1.687 1.696,-4.226 2.539,-5.926 -1.695,2.54 -3.386,4.239 -5.078,6.778 0.844,-0.852 1.692,-0.852 2.539,-0.852 m 18.637,-62.691 c 0,-4.242 0,-8.481 0,-12.715 -6.769,12.715 -12.711,25.418 -19.484,38.133 0.847,-0.852 1.691,-1.692 2.543,-3.391 5.937,-6.785 11.863,-14.402 16.941,-22.027 m -60.996,366.023 c 0,0.852 -0.859,1.696 -0.859,2.543 0,0.848 0,1.692 0,3.387 0,0.848 0,2.543 0,3.387 5.937,-11.856 11.019,-23.719 16.097,-34.739 0,-4.23 0.864,-8.468 0.864,-12.703 -5.094,12.703 -11.024,25.414 -16.102,38.125 m 4.234,-293.164 c -2.543,-2.539 -4.234,-5.078 -6.781,-6.777 -2.547,0.848 -4.238,1.699 -6.777,2.539 2.539,2.539 5.926,5.09 8.465,7.637 1.707,-0.848 4.246,-0.848 5.937,-1.7 0,-0.847 -0.844,-0.847 -0.844,-1.699 m -90.664,-67.781 v 0 c 2.539,2.547 4.242,4.234 6.782,5.934 5.929,5.078 12.703,10.168 19.488,15.253 -1.696,-1.699 -2.543,-2.539 -4.235,-4.238 16.09,13.559 33.036,27.961 49.141,41.516 2.539,-0.852 4.234,-1.692 6.777,-2.539 -25.421,-18.645 -51.683,-37.278 -77.953,-55.926 m -0.847,204.191 c 0,0 -1.696,0.852 -2.539,0.852 -5.93,1.687 -11.016,3.387 -16.946,5.926 5.93,2.55 12.699,5.937 17.789,8.476 1.696,-3.386 3.387,-7.617 5.082,-11.015 0,-0.84 -0.843,-0.84 -1.695,-1.7 0,-0.839 -0.844,-1.687 -1.691,-2.539 m -0.848,-41.519 c -6.777,1.703 -13.559,4.25 -19.484,5.937 -0.848,0 0.847,0.852 0.847,0.852 6.774,-1.692 13.555,-4.238 18.637,-6.789 0.848,0.859 0.848,0 0,0 m -7.621,-186.395 c -24.574,-19.48 -49.141,-38.984 -73.723,-58.468 1.696,2.539 3.391,5.089 5.93,6.789 7.633,6.765 16.098,14.406 24.582,21.171 2.539,2.547 5.926,5.086 9.309,7.637 13.558,8.469 26.269,17.793 38.984,26.262 -2.543,-0.852 -4.238,-1.703 -5.082,-3.391 M 418.16,250.891 c -0.836,-1.7 -2.539,-2.539 -4.234,-3.387 -4.235,-3.391 -8.465,-6.789 -11.856,-10.18 0.844,1.699 1.684,2.551 2.539,4.239 0,0.863 0.852,0.863 0.852,1.691 0.844,0.859 1.691,1.711 3.383,2.547 2.543,0.851 5.926,2.551 9.316,5.09 m 40.672,156.746 h 0.852 c -1.696,-1.688 -2.543,-3.387 -4.235,-5.078 -0.847,0 -0.847,0 -0.847,0 0,0.851 0.847,0.851 0.847,0.851 1.692,1.688 2.539,3.379 3.383,4.227 m 7.633,-2.539 c 0,-0.848 -0.856,-0.848 -0.856,-1.688 -0.839,-0.851 -2.543,-2.551 -3.386,-3.39 -1.696,0 -2.539,0.839 -4.235,1.679 -0.847,0 0,0 0,0.86 0.844,1.691 2.539,2.539 4.235,4.23 1.703,0 2.547,-0.84 4.242,-1.691 m -0.856,33.886 c -1.683,-1.687 -4.23,-4.226 -5.925,-5.925 -0.852,0 -0.852,0 -1.696,0.839 2.539,2.547 5.078,4.247 7.621,5.938 v 0 c 0.856,0 0,-0.852 0,-0.852 M 361.395,305.961 c -0.848,-0.852 -1.692,-1.691 -2.54,-2.539 0,0 0.848,0.848 0.848,1.687 3.387,3.399 6.774,6.786 10.16,10.176 1.696,1.688 4.242,3.391 5.938,5.93 7.621,7.625 15.254,15.254 22.871,23.726 9.324,10.168 18.652,19.485 27.965,29.653 1.691,1.699 4.23,4.234 5.926,5.926 1.695,1.699 3.398,4.238 5.937,5.937 2.539,3.387 5.93,5.926 8.469,8.477 0.847,0.839 1.703,2.539 2.543,2.539 0,0 0.843,0 1.699,-0.848 -5.09,-5.93 -11.016,-11.867 -16.098,-17.797 5.926,5.93 11.856,11.867 17.793,17.797 1.696,-0.852 2.543,-0.852 4.235,-1.691 -5.93,-6.789 -11.864,-11.868 -17.789,-18.641 0,-0.852 -0.852,-0.852 -0.852,-1.699 0,-0.852 -0.844,-0.852 -0.844,-1.692 -0.859,-0.859 -1.695,-1.699 -2.543,-2.55 -25.422,-20.332 -49.996,-42.364 -73.718,-64.391 M 341.91,153.449 c 1.695,2.539 3.387,5.078 5.926,7.617 0.852,0.86 0.852,1.7 1.695,2.559 0.844,0.84 1.696,0.84 2.539,1.688 5.094,4.23 11.02,8.468 16.098,12.707 -8.465,-7.629 -16.941,-16.094 -26.258,-24.571 m -24.574,6.778 c 0,0.839 0.844,0.839 1.691,1.699 4.235,3.387 8.477,7.617 13.563,11.004 4.242,3.39 9.32,7.629 13.555,11.027 0,-0.852 -1.696,-1.699 -2.54,-2.551 -8.476,-6.773 -17.792,-14.402 -26.269,-21.179 m 0.844,-1.7 c -9.313,-7.617 -18.641,-15.254 -27.953,-22.871 -12.711,-10.168 -24.579,-20.332 -37.289,-30.508 1.695,1.7 3.39,2.547 4.246,3.387 5.082,3.391 9.316,7.629 13.558,11.028 5.93,5.078 11.856,10.156 17.793,15.242 5.93,5.09 11.856,11.027 17.789,15.254 5.926,5.078 12.703,10.168 19.489,14.406 -1.696,-0.84 -5.09,-3.399 -7.633,-5.938 m -72.864,-54.218 c -0.843,-0.848 0,0 0,0 m -5.937,-5.0902 C 228.375,89.9023 217.355,80.5781 206.34,71.2617 l -0.852,-0.8515 c 0,0.8515 0,1.6992 0,1.6992 0,0.8398 0.852,0.8398 0.852,0.8398 0.844,0.8516 1.703,0.8516 2.539,1.6992 0.848,0.8516 1.703,0.8516 2.547,1.6914 11.012,8.4766 22.875,17.793 33.89,27.1212 -2.546,-1.691 -4.242,-2.539 -5.937,-4.2422 m -16.098,-9.3165 c 11.02,9.3165 22.035,18.6327 33.047,27.9607 37.285,32.196 73.715,64.395 110.996,96.582 -2.539,-4.218 -5.929,-8.468 -9.316,-13.547 -0.844,-0.847 -0.844,-1.699 -0.844,-1.699 -0.859,-0.84 -1.695,-1.687 -2.547,-2.547 -12.707,-11.007 -26.265,-22.019 -38.976,-33.027 1.695,1.688 4.23,2.539 5.937,4.227 -8.476,-6.786 -16.109,-14.403 -24.574,-21.192 -25.426,-20.328 -51.688,-40.66 -77.106,-60.992 0,1.6953 1.688,3.3867 3.383,4.2343 M 430.867,411.027 c 1.696,1.692 2.547,2.539 4.246,3.391 1.684,-0.852 4.239,-0.852 5.926,-1.699 -0.844,-1.692 -2.539,-2.543 -3.383,-4.231 -2.543,0.852 -5.093,1.688 -6.789,2.539 m -7.613,34.735 c 0,0.851 0.844,0.851 0.844,0.851 0.843,0.852 2.539,2.539 3.386,3.391 v 0 c 5.93,-1.703 11.868,-3.391 17.793,-5.09 -2.543,-1.691 -4.238,-3.379 -6.777,-5.078 -5.086,2.539 -10.172,4.238 -15.246,5.926 m -21.184,44.914 c -39.828,12.711 -79.648,24.566 -119.472,38.121 53.375,-16.106 106.761,-32.195 159.293,-49.137 -0.852,-0.851 -0.852,-0.851 -2.539,-0.851 -2.555,0.851 -5.094,1.699 -7.633,2.539 -10.16,3.402 -20.332,6.781 -29.649,9.328 m 9.317,-72.871 c -4.235,1.687 -9.317,3.386 -13.559,4.238 0,0.848 1.703,1.699 1.703,2.539 5.078,-1.691 10.16,-2.539 15.239,-4.23 -0.844,-0.86 -1.688,-1.707 -3.383,-2.547 m -6.778,-5.926 c -35.582,-28.813 -70.332,-56.77 -105.914,-85.578 v 0 c 11.868,11.004 22.883,22.871 34.739,33.887 1.695,1.699 3.398,3.386 5.937,5.925 1.692,1.7 4.234,3.391 5.926,5.93 7.625,7.637 15.25,15.254 22.871,22.891 5.937,5.925 11.867,11.015 17.793,16.945 1.707,1.687 4.242,3.387 5.937,5.074 4.235,-1.687 8.469,-2.535 12.711,-5.074 0.852,0.84 0,0.84 0,0 m -50.843,25.418 c 10.172,-2.539 20.339,-5.938 31.351,-8.477 -0.84,-0.851 -0.84,-0.851 -1.695,-1.687 -10.16,3.375 -20.332,6.765 -29.656,10.164 m -30.504,43.211 c 29.66,-8.477 60.16,-16.953 89.82,-26.278 v -0.832 c -0.852,-0.855 -3.391,-2.554 -4.238,-3.394 -28.809,11.012 -56.774,20.332 -85.582,30.504 v 0 m -11.856,4.242 c 1.696,0 4.235,-0.863 5.93,-1.699 5.926,-1.703 11.863,-3.391 17.793,-5.09 0,0 0,0 -0.852,0 -4.234,0.848 -7.617,1.699 -11.855,3.387 -4.242,0.863 -7.625,2.539 -11.016,3.402 m -33.89,88.953 c 4.23,-2.539 10.16,-5.082 14.394,-8.469 -9.312,4.235 -19.472,8.469 -28.801,12.704 -28.808,12.707 -58.464,24.574 -88.125,37.289 1.704,0 3.391,-0.848 5.938,-0.848 v 0 l 20.332,-4.246 c 3.391,-1.695 6.789,-3.387 11.019,-4.235 2.54,-0.843 5.93,-0.843 9.313,-0.843 2.547,0 5.937,0 8.48,-0.848 l 22.872,-15.25 2.542,-0.852 v 0 0 l 49.145,-20.332 53.383,-24.574 c -27.113,11.016 -54.223,22.035 -81.336,33.043 0,-1.695 0.844,-2.539 0.844,-2.539 m -88.969,103.375 c 14.402,-5.09 28.808,-10.172 42.367,-15.25 -1.695,0 -3.391,0.844 -5.937,1.695 -5.93,1.688 -11.856,3.383 -17.793,5.079 0.859,0 0,0 0.859,0 -2.555,0.847 -3.398,0.847 -5.094,1.695 -2.539,0 -5.078,0.844 -6.781,0.844 -1.688,0.847 -3.391,1.695 -5.918,2.543 -0.859,0.843 -1.703,0.843 -2.551,0.843 -2.543,0.852 -5.082,2.551 -8.469,3.391 -1.707,0.852 -4.246,1.703 -5.941,2.547 5.086,0.844 11.024,-1.695 15.258,-3.387 m 60.16,-44.906 c 5.078,-2.539 10.16,-5.086 16.098,-7.633 16.097,-6.773 31.347,-14.406 47.445,-22.027 -26.27,5.082 -52.527,10.172 -79.645,15.254 -1.691,0 -3.386,0.843 -5.082,0.843 -0.843,0 -1.695,0.852 -2.546,1.696 l 55.078,-4.235 c 0,0 -29.657,13.563 -63.547,27.965 2.539,-0.855 5.078,-1.703 7.625,-2.551 3.39,-0.847 5.933,-1.691 8.472,-2.543 5.93,-1.687 11.016,-4.23 16.102,-6.769 m 57.617,-7.633 c 0.848,0 1.696,-0.848 3.387,-0.848 0.852,-0.847 2.539,-0.847 3.391,-0.847 0.843,0 1.695,-0.844 1.695,-1.692 1.691,-1.691 4.23,-3.386 5.926,-5.082 -5.926,2.539 -12.703,5.93 -18.645,8.469 1.707,-0.848 3.391,0 4.246,0 m 147.43,-121.152 c -2.543,0.84 -5.082,1.687 -8.477,3.379 -2.543,0.847 -4.238,1.699 -6.777,2.539 0.852,0 0.852,0 1.695,0.847 5.082,-1.687 9.317,-4.226 13.559,-6.765 m -71.18,67.777 c 3.387,-1.695 7.629,-3.391 11.02,-5.082 22.027,-10.172 44.062,-20.344 66.09,-30.504 l -18.645,-11.859 c -2.539,0.84 -4.242,1.687 -6.781,3.379 -7.621,3.386 -15.25,6.785 -23.723,10.175 -5.074,2.54 -10.168,4.235 -16.097,6.774 -15.25,6.785 -31.348,14.402 -45.75,22.035 -3.391,-0.848 -7.625,0 -11.012,1.691 -9.324,3.391 -17.805,7.625 -25.426,11.86 -0.844,0 -1.687,0.851 -1.687,0.851 -7.633,4.235 -15.254,7.621 -22.887,11.856 -2.539,1.695 -5.93,2.543 -8.465,4.234 v 0 c 31.352,-6.773 61.852,-13.547 91.508,-22.027 3.386,-0.844 7.621,-2.539 11.855,-3.383 m -17.789,242.324 v 0 c 6.774,-12.711 14.403,-26.269 21.176,-38.968 0.855,-2.54 2.551,-4.247 3.398,-6.79 22.028,-53.375 44.899,-108.453 69.473,-160.136 1.695,-4.235 4.234,-8.465 5.938,-12.711 0,0 0.839,-0.848 0,-0.848 -0.844,0 -0.844,0.848 -1.704,0.848 -34.738,71.18 -66.933,144.89 -98.281,218.605 m -11.019,18.645 c 0.851,-0.852 0.851,-1.695 0.851,-1.695 2.547,-5.086 5.93,-10.172 7.625,-15.254 2.543,-5.93 5.082,-12.711 7.621,-18.637 -5.078,11.863 -10.16,23.719 -16.097,35.586 m 20.339,155.902 v 0 c 11.012,-25.426 22.028,-50.836 33.047,-77.105 0,-0.852 0.844,-2.543 1.692,-4.235 v -0.847 c 0,-0.844 0,0 -0.848,-0.844 -0.844,0 -0.844,0 -0.844,0.844 -0.847,0.847 -0.847,3.386 -1.691,4.23 -9.328,27.121 -20.344,52.531 -31.356,77.957 m 5.083,1.692 c 4.234,-10.168 8.48,-21.18 12.71,-32.196 0.844,-1.695 0.844,-3.39 1.696,-4.234 -4.235,12.711 -8.477,24.566 -13.559,37.277 h 0.848 c 11.859,-27.105 23.726,-53.375 35.582,-81.34 -1.695,-0.847 -3.383,-1.691 -5.078,-2.539 -4.235,10.172 -8.473,20.332 -12.715,30.504 -1.692,3.383 -2.539,6.774 -4.234,10.16 -2.54,6.782 -5.926,13.559 -9.321,20.344 -3.387,6.77 -5.929,13.559 -5.929,22.024 z m 70.324,-296.559 c 3.394,-7.617 6.781,-15.25 10.172,-22.027 3.382,-7.618 6.781,-15.25 9.32,-22.871 -11.863,19.488 -23.727,40.664 -34.746,61.003 -1.695,3.391 -4.235,6.778 -5.93,10.168 -1.691,3.383 -3.387,7.625 -5.074,11.016 -12.719,30.504 -25.426,60.16 -37.293,91.508 0,0.848 0.855,-0.844 0.855,-0.844 6.778,-13.562 13.551,-27.965 20.336,-41.523 7.618,-14.407 14.407,-28.809 21.176,-43.215 7.633,-13.559 14.406,-27.953 21.184,-43.215 m 16.953,12.715 c 6.773,-13.551 11.855,-28.805 17.793,-43.211 -3.399,6.777 -6.781,13.551 -10.172,20.332 -3.387,6.777 -5.938,14.406 -9.316,21.184 -5.938,14.402 -11.864,28.808 -17.801,43.21 6.785,-13.554 12.715,-27.113 19.496,-41.515 m -13.559,116.082 c 0,-0.844 0,0 0,0 v 0 m 0,0 v 0 c 0,0.848 0,0 0,0 m 0.848,-0.844 c 0,-0.855 0,0 0,0 v 0 m 0,-0.855 v 0 0 m 0,-0.848 v 0 c 0,0.848 0,0 0,0 m 0.848,-0.848 c 0,-0.847 0,0 0,0 v 0 m 0,-0.847 v 0 0 m 0.847,-1.692 c 0,0 -0.847,0.848 -0.847,1.692 v 0 c 0.847,-0.844 0.847,-1.692 0.847,-1.692 m 22.871,-388.898 -0.843,-0.852 c 0,0.852 0.843,0.852 0.843,0.852 1.703,2.539 4.243,4.226 5.938,6.765 -0.852,-1.687 -3.399,-4.226 -5.938,-6.765 m 4.243,0 c 1.695,1.687 3.39,4.226 5.929,5.926 1.696,-0.848 3.387,-0.848 4.235,-1.7 0,0 0,-0.851 -0.848,-0.851 -1.691,-2.539 -4.234,-4.227 -6.777,-6.766 -0.844,0.84 -2.539,0.84 -4.243,1.688 0,0.851 1.704,1.703 1.704,1.703 m -26.27,388.051 c 0.848,-1.696 2.539,-5.079 2.539,-6.774 16.102,-38.984 32.199,-77.953 49.148,-116.933 2.54,-5.082 4.231,-10.168 6.77,-16.098 0,-0.852 0.855,-1.695 0.855,-2.543 0,-1.695 0,-2.539 0.848,-5.078 -19.496,49.137 -39.828,96.59 -59.312,144.887 -0.848,1.695 -0.848,1.695 -0.848,2.539 -0.844,0 -0.844,0.847 0,0 m 43.215,120.32 c 0.847,-0.848 0.847,-2.547 0.847,-4.242 0,3.394 -0.847,6.781 -0.847,10.172 -1.692,13.558 -3.395,26.269 -4.242,39.828 -0.848,4.234 0,9.312 2.55,13.543 1.692,3.398 5.93,5.935 10.164,5.935 6.77,0 12.708,-9.318 15.247,-14.4 1.695,-3.391 2.543,-6.781 4.234,-11.016 0.852,-3.39 1.695,-7.621 3.391,-11.019 4.242,-15.25 8.472,-30.504 11.863,-46.594 3.39,-16.098 6.781,-32.195 9.328,-49.141 2.535,-14.41 4.23,-28.812 6.77,-44.062 0,-1.695 0.851,-4.242 0.851,-5.938 0,-1.691 0,-2.539 -0.851,-4.23 -2.54,-20.332 -5.079,-42.36 -7.622,-62.703 -9.32,19.492 -19.488,40.676 -28.808,61.008 -0.852,1.695 -1.695,2.539 -1.695,4.234 -0.844,1.691 -0.844,4.242 -0.844,6.781 -1.696,15.254 -4.239,31.352 -5.938,46.602 -2.543,18.64 -5.082,36.433 -6.777,55.07 0,-4.23 0.851,-8.465 1.695,-12.707 3.387,-29.66 6.781,-59.316 10.168,-89.812 -1.691,4.234 -4.242,8.468 -5.933,13.562 0,0.836 -0.848,1.688 -0.848,1.688 0,0.851 0,1.695 0,3.39 -1.691,15.254 -3.387,30.5 -5.082,45.758 -5.078,15.246 -6.774,32.195 -7.621,48.293 m -61.852,27.105 c -3.398,6.786 -6.789,14.411 -10.172,22.036 -2.543,5.929 -5.925,12.707 -8.476,18.645 0,0 0,0.84 -0.848,1.69 0,0.85 0,0.85 0.848,0.85 0.855,-0.85 0.855,-1.7 0.855,-2.54 9.317,-19.489 18.637,-38.985 27.106,-59.317 12.715,-27.106 25.426,-54.223 38.133,-82.188 2.543,-5.93 5.929,-11.867 8.472,-17.793 0,-0.847 0.844,-1.691 1.692,-2.539 0,-0.848 0,-1.695 0,-2.539 0,-2.539 0.847,-5.094 0.847,-7.633 -19.488,44.063 -38.972,87.274 -58.457,131.328 m -27.965,35.594 c -0.847,0 -0.847,1.695 -0.847,1.695 0,0.842 -0.848,0.842 0,1.692 l 0.847,-0.85 c 0.844,-2.537 1.696,-4.24 2.539,-6.779 7.633,-18.637 15.254,-37.281 22.883,-55.918 -8.476,19.488 -16.953,39.82 -25.422,60.16 M 548.652,719.441 c 0,0.844 -0.855,0.844 -0.855,1.688 0,0.851 0,3.398 0.855,4.246 0,1.691 0,3.387 0.844,4.23 0.852,-1.687 1.695,-4.23 3.391,-6.781 0,-2.539 -0.844,-5.929 -0.844,-8.469 -1.695,1.696 -2.547,3.391 -3.391,5.086 m -2.547,-11.011 c 0.852,-1.703 1.692,-4.242 3.391,-6.782 0,-1.695 -0.844,-3.39 -0.844,-5.085 -0.855,2.539 -1.695,4.234 -3.386,6.773 0.839,1.695 0.839,3.391 0.839,5.094 m -27.113,105.058 c 5.086,-11.015 10.164,-22.027 15.254,-33.89 0,0 0,0 -0.848,0 -0.855,1.695 -1.695,3.386 -3.394,5.925 -2.543,5.094 -5.926,11.024 -8.473,16.95 -0.843,0.843 -1.687,2.539 -1.687,3.394 0,0.848 0,2.543 -0.852,4.238 0.852,0.844 0,2.54 0,3.383 m -8.472,11.864 c 0,3.39 -0.848,6.781 -0.848,11.023 2.539,-5.094 5.078,-10.172 6.781,-15.254 0,-2.551 0.848,-5.937 0.848,-8.476 -2.551,3.386 -4.242,8.476 -6.781,12.707 m 9.324,-33.039 c 0,-4.235 0.844,-7.633 0.844,-11.02 -2.54,4.23 -4.235,9.324 -6.782,14.402 0,3.391 -0.847,7.621 -0.847,11.02 1.691,-5.09 4.242,-10.168 6.785,-14.402 m -3.391,-19.5 c 2.539,-4.231 4.235,-9.313 5.93,-13.547 0,-1.696 0,-2.551 0,-3.395 -2.539,5.09 -4.235,9.32 -6.778,14.402 1.696,0.856 0.848,1.707 0.848,2.54 m 27.965,-60.149 c 0,-1.695 -0.859,-3.391 -0.859,-4.234 -5.079,11.011 -10.161,22.027 -14.403,33.89 0,0.848 -0.843,1.696 -0.843,2.539 -0.852,1.696 0,3.391 -0.852,5.082 5.937,-12.714 11.019,-25.414 16.957,-37.277 m -19.496,59.316 c -0.844,4.235 -0.844,8.465 -1.695,12.7 8.476,-16.95 16.097,-33.891 24.57,-49.992 0,-2.54 -0.84,-5.926 -0.84,-8.465 -7.633,14.406 -15.254,30.492 -22.035,45.757 m 33.891,28.797 c -0.844,-5.925 -1.696,-12.699 -1.696,-18.636 -0.844,-9.328 -1.691,-17.793 -2.539,-26.27 1.695,15.258 4.235,31.348 5.93,46.602 0.844,-2.539 0,-6.778 0,-10.16 -1.695,-16.95 -3.391,-34.743 -5.082,-51.684 -0.848,1.691 -1.692,3.387 -2.539,5.082 0,0.844 -0.844,1.687 -0.844,1.687 0,0.852 0,2.543 0.844,4.239 2.539,19.492 5.082,39.824 6.777,58.468 0,-2.546 -0.851,-5.929 -0.851,-9.328 m 4.246,-109.3 c 0,1.691 0.843,5.086 0.843,6.781 3.387,-6.781 6.778,-14.403 10.164,-21.18 0.844,-0.855 0.844,-1.699 1.692,-2.551 0,-0.843 0,-2.539 0,-3.386 0,-3.383 0,-6.774 0.847,-11.016 -4.234,8.477 -8.464,17.793 -12.703,27.113 -0.843,1.696 -0.843,2.543 -0.843,4.239 m 3.386,26.269 c 0,2.539 0.844,5.93 0.844,8.477 0.852,4.234 0.852,7.621 1.695,11.855 1.696,-10.16 2.539,-21.183 5.082,-31.351 0.844,-3.391 0.844,-6.774 0.844,-10.164 -2.539,5.085 -5.082,10.164 -7.621,16.101 0,0.848 -0.844,1.691 -0.844,2.539 0,0.848 0,1.692 0,2.543 M 264.805,468.633 c -6.782,1.703 -13.559,4.25 -20.332,5.937 1.695,0 3.382,-0.84 5.078,-1.687 3.387,-0.852 6.777,-1.699 11.019,-3.391 1.696,-0.859 3.383,-0.859 5.078,-1.695 0,0.836 -0.843,0.836 -0.843,0.836 M 1035,401.699 c -46.602,7.641 -164.375,7.641 -236.402,6.789 -4.235,1.688 -7.621,3.391 -11.864,5.93 -30.496,14.402 -61.839,28.805 -92.347,43.211 5.082,5.078 10.164,9.324 16.097,14.402 v 0 C 756.238,455.09 827.41,430.508 874.016,414.418 v 0 0 0 c 3.382,-0.852 10.16,5.074 12.707,14.402 2.539,9.325 1.695,17.793 -1.703,19.481 0,0 -105.059,36.449 -144.887,50.836 21.191,18.652 43.219,36.441 64.394,55.078 21.192,18.644 43.215,36.43 64.395,54.223 11.019,9.328 22.035,17.792 33.055,27.121 22.027,17.793 44.054,35.582 67.781,51.679 5.926,4.239 11.863,8.481 17.793,11.864 4.23,2.546 7.629,5.086 11.863,6.781 2.536,1.703 5.086,2.547 7.626,3.39 v 0 c 0,0.852 -0.85,0 0,0.852 0,0 0.84,0.844 1.69,0.844 0,1.695 0.85,4.234 0,5.926 -1.69,0 -2.54,-0.844 -4.23,-0.844 v 0.844 c -5.93,-3.383 -11.867,-5.926 -17.797,-9.309 -0.848,-0.859 -2.539,-0.859 -3.387,-1.703 0,0 -0.843,0 -0.843,-0.852 -8.485,-4.234 -16.95,-8.468 -25.426,-12.699 -7.633,-4.242 -16.102,-7.633 -23.723,-11.867 -7.633,-4.242 -15.25,-7.629 -23.73,-11.863 -31.348,-16.946 -61.852,-33.043 -92.352,-49.993 3.395,2.543 6.781,5.93 10.168,7.621 4.235,2.551 7.629,4.247 11.863,6.786 23.719,12.703 46.606,26.261 70.321,38.972 16.097,8.477 31.351,16.946 47.453,25.422 13.558,6.778 27.965,14.406 42.367,21.18 1.696,0.851 4.236,2.539 6.776,1.695 0,0 0.85,0 0.85,-0.844 0.84,-0.851 1.69,-0.851 2.54,-1.695 0.85,-1.695 1.69,-5.082 0.85,-7.621 0,-0.852 -0.85,-0.852 -1.7,-1.695 l -0.85,-0.844 c -0.84,-0.859 -1.69,-0.859 -1.69,-0.859 -4.24,-2.539 -7.62,-4.235 -11.866,-6.774 -7.621,-5.082 -15.242,-10.172 -22.023,-15.254 -2.543,-1.695 -5.082,-3.39 -7.633,-5.078 -14.395,-10.172 -28.805,-21.191 -42.359,-32.195 -9.325,-7.633 -18.641,-15.254 -27.961,-22.887 -1.696,-1.695 -4.235,-3.387 -5.93,-5.078 -20.332,-16.949 -39.828,-34.742 -60.16,-51.688 -13.563,-11.863 -26.27,-22.878 -39.828,-34.75 v 0 c 32.207,27.122 64.402,53.391 96.59,79.661 -26.258,-22.039 -52.532,-44.063 -77.946,-66.946 v 0 c 3.391,2.551 6.778,5.094 10.168,7.633 -10.168,-10.172 -21.183,-19.488 -31.351,-29.652 -8.469,-7.629 -16.102,-14.414 -23.723,-22.043 -2.539,-1.68 -5.078,-4.223 -6.781,-6.774 l -0.84,-0.839 c 3.387,2.539 5.926,5.074 8.473,6.773 14.402,11.855 27.957,24.57 42.367,36.437 11.015,9.317 22.871,19.485 33.886,28.809 5.926,5.082 11.856,9.316 16.95,14.402 0,0 0,0 0.843,0.852 0.848,0.844 0.848,0.844 1.696,1.691 11.019,9.313 21.179,17.789 32.195,27.106 16.949,14.406 34.734,27.965 52.527,41.523 9.329,6.774 17.793,13.555 27.121,20.332 3.383,2.539 5.926,4.235 9.321,6.782 9.316,6.781 18.644,12.707 28.804,17.793 3.39,1.695 6.78,3.39 9.32,6.773 1.7,3.391 3.39,7.633 2.55,12.715 -0.85,4.234 -2.55,7.625 -5.93,9.324 1.69,-1.699 3.38,-3.395 4.23,-5.934 0.85,-2.546 1.7,-5.086 1.7,-8.472 0,-0.844 -0.85,-2.539 -0.85,-3.383 -0.85,-2.555 -2.54,-4.25 -4.24,-5.938 -0.84,-0.851 -1.69,-1.695 -3.39,-2.546 -2.54,-1.692 -4.24,-2.539 -6.78,-3.383 -6.77,-3.387 -13.559,-7.629 -19.485,-11.02 -4.234,-2.539 -8.476,-5.929 -12.71,-7.621 8.476,7.621 18.636,14.399 29.655,20.332 2.54,1.692 5.08,3.387 7.63,4.238 2.54,1.688 5.08,3.383 5.93,6.782 1.69,3.386 0.85,7.621 0,10.16 -1.69,2.539 -3.39,5.086 -6.78,5.937 4.24,1.696 8.47,4.235 12.71,6.774 2.54,1.695 5.93,3.387 8.48,5.926 0.84,0.851 1.69,1.695 2.54,2.546 1.69,1.688 2.53,3.395 3.38,5.938 0.85,1.687 1.7,4.23 1.7,6.769 0,2.54 -0.85,5.09 -1.7,7.633 -0.85,2.539 -1.69,4.235 -3.38,5.93 -2.54,3.383 -5.94,5.937 -11.02,6.77 -2.54,0.847 -5.08,0.847 -7.62,0.847 -23.732,-2.531 -42.369,-10.16 -61.857,-16.945 3.386,0.855 8.464,3.398 12.71,4.246 -12.71,-5.09 -26.269,-10.172 -38.98,-15.25 -7.621,-3.391 -14.402,-7.633 -20.332,-11.867 5.93,5.078 11.863,10.172 17.793,16.097 5.078,5.079 10.172,11.864 15.25,17.789 2.539,2.543 4.23,5.93 6.777,9.329 2.547,3.386 4.242,6.777 5.086,11.019 0.852,2.539 0.852,5.93 0,7.617 -0.844,1.696 -1.703,3.391 -3.387,5.082 -0.855,1.696 -2.539,2.539 -4.246,3.399 -1.691,0.836 -3.382,2.539 -5.925,2.539 -0.844,0 -2.539,0 -3.383,-0.848 -5.938,-0.855 -10.172,-3.394 -14.41,-6.781 -1.692,-0.848 -3.383,-2.539 -5.078,-3.391 -13.559,-9.312 -24.575,-19.48 -36.442,-29.652 -17.793,-15.254 -35.586,-31.355 -53.379,-46.602 -16.941,-15.253 -33.89,-29.66 -50.836,-44.914 -0.851,-0.843 -1.691,-1.691 -2.539,-1.691 -23.726,-20.332 -47.461,-41.512 -71.179,-61.852 -17.79,-15.254 -35.583,-31.351 -53.375,-46.605 12.703,12.715 25.417,25.422 38.968,37.289 3.391,3.387 6.782,5.926 9.328,9.316 3.387,3.395 5.926,6.782 9.317,9.321 3.383,3.386 6.781,5.925 9.32,9.328 3.391,3.383 6.781,5.926 9.328,9.308 25.41,25.426 50.832,50.84 76.25,75.414 31.348,31.356 63.543,63.551 94.899,94.899 5.086,5.086 9.32,9.316 13.558,14.406 1.688,1.692 3.383,3.387 4.235,5.082 2.547,4.235 4.242,8.469 4.242,12.711 0,1.692 0,2.539 0,4.231 0,3.39 -2.551,5.929 -4.242,8.476 -0.852,0.852 -0.852,0.852 -1.696,1.695 -1.695,1.696 -4.234,2.543 -6.777,2.543 -2.539,0.848 -5.934,0 -8.477,-0.847 -5.078,-1.696 -8.476,-3.391 -12.711,-5.938 0,0 -5.082,-3.383 -6.773,-5.078 1.691,1.695 4.234,3.383 5.93,5.078 0,0 0,0 0,0.852 v 0 c 4.242,5.086 5.929,11.863 1.687,15.258 -3.383,4.23 -11.004,3.386 -16.941,-0.856 -0.848,-0.851 -2.539,-2.539 -3.391,-3.39 -8.465,-9.317 -16.097,-17.793 -24.562,-26.266 -2.539,-2.539 -4.235,-5.078 -7.633,-7.625 -7.621,-6.773 -15.25,-13.555 -22.871,-20.332 -5.082,-4.242 -10.172,-9.32 -15.254,-13.559 -5.078,-4.234 -10.172,-9.32 -15.25,-13.554 -7.633,-6.778 -15.254,-13.559 -22.887,-20.336 -2.539,-2.539 -5.078,-4.235 -7.617,-6.785 6.781,5.093 12.711,9.328 19.484,13.562 -11.015,-10.16 -22.871,-19.488 -34.738,-29.66 -11.863,-10.16 -22.871,-20.332 -34.734,-29.649 -22.887,-19.492 -44.914,-39.824 -66.942,-59.308 l -0.843,-0.852 c 0,15.254 -0.852,44.055 -0.852,45.758 0,1.692 -4.234,3.387 -9.316,3.387 -1.696,0 -2.539,0 -4.235,0 0.844,22.027 0.844,44.91 1.696,66.933 v 0 c 0,5.082 -5.942,8.469 -13.563,8.469 h -0.844 -0.847 c -0.848,0 -1.696,0 -1.696,0 -0.843,0 -0.843,0 -1.695,-0.847 -0.844,0 -0.844,-0.833 -1.688,-0.833 -0.863,0 -0.863,-0.851 -1.707,-0.851 -0.839,0 -0.839,-0.856 -1.695,-0.856 l -0.844,-0.847 c 0,0 -0.847,-0.844 -0.847,-1.696 0,-0.843 0,-0.843 -0.844,-1.687 0,-0.852 0,-0.852 0,-1.695 0,0 0,0 0,-0.848 0,0 0,0 0,-0.848 v -0.847 c 0,0 0,0 0,-0.844 0,0 0,0 0,-0.848 0,0 0,0 0,-0.847 0,0 0,0 0,-0.844 0,0 0,0 0,-0.852 0,0 0,0 0,-0.855 v -0.844 -0.851 -0.844 -0.848 -0.848 -0.843 -0.848 -0.848 -0.847 -0.844 -0.852 -0.843 -0.844 -0.852 c 0,-0.843 0,-0.843 0,-1.691 0,-0.848 0,-0.848 0,-1.707 0,-0.832 0,-0.832 0,-1.688 0,-0.851 0,-0.851 0,-1.695 0,-0.851 0,-0.851 0,-1.695 v -1.695 c 0,-0.844 0,-0.844 0,-1.692 0,-0.848 0,-0.848 0,-1.695 0,-0.844 0,-0.844 0,-1.696 0,-0.843 0,-0.843 0,-1.687 0,-0.852 0,-0.852 0,-1.695 0,-0.848 0,-0.848 0,-1.703 0,-0.844 0,-0.844 0,-1.696 0,-0.844 0,-0.844 0,-1.695 0,-0.844 0,-0.844 0,-1.688 0,-0.851 0,-0.851 0,-1.695 v -1.695 c 0,-0.848 0,-0.848 0,-1.696 v -1.691 c 0,-0.848 0,-0.848 0,-1.695 v -1.696 c 0,-0.843 0,-0.843 0,-1.687 0,-0.859 0,-0.859 0,-1.703 v -1.695 c 0,-0.852 0,-0.852 0,-1.696 0,-0.844 0,-0.844 0,-1.695 0,-0.844 0,-0.844 0,-1.695 0,-0.844 0,-0.844 0,-1.692 0,-0.847 0,-0.847 0,-1.691 0,-0.848 0,-0.848 0,-1.696 0,-0.855 0,-0.855 0,-1.691 0,-0.855 0,-0.855 0,-1.695 0,-0.856 0,-0.856 0,-1.703 0,-0.844 0,-0.844 0,-1.696 0,-0.843 0,-0.843 0,-1.687 0,-0.852 0,-0.852 0,-1.696 0,-0.851 0,-0.851 0,-1.695 v -1.695 c 0,-0.844 0,-0.844 0,-1.695 0,-0.852 0,-0.852 0,-1.692 0,-0.855 0,-0.855 0,-1.699 0,-0.852 0,-0.852 0,-1.695 0,-0.848 0,-0.848 0,-1.696 0,-0.847 0,-0.847 0,-1.691 0,-0.848 0,-0.848 0,-1.695 0,-0.844 0,-0.844 0,-1.696 0,-0.843 0,-0.843 0,-1.695 0,-0.844 0,-0.844 0,-1.688 0,-0.851 0,-0.851 0,-1.695 0,-0.859 0,-0.859 0,-1.703 0,-0.848 0,-0.848 0,-1.695 0,-0.844 0,-0.844 0,-1.696 0,-0.843 0,-0.843 0,-1.691 0,-0.848 0,-0.848 0,-1.691 0,-0.848 0,-0.848 0,-1.696 0,-0.847 0,-0.847 0,-1.691 0,-0.852 0,-0.852 0,-1.695 0,-0.844 0,-0.844 0,-1.696 v -0.855 0 0 0 c -1.695,3.394 -3.391,5.937 -4.234,9.324 -0.852,0.848 -1.696,2.543 -1.696,3.387 -0.847,5.937 -0.847,12.711 -0.847,18.648 0,5.926 -0.848,12.703 -0.848,18.633 -0.848,12.719 -1.691,24.574 -1.691,37.285 -1.707,33.891 -4.247,67.781 -5.094,102.52 0,1.695 0,3.398 0,4.242 0,1.695 0,3.387 0.847,4.234 3.399,34.738 11.016,103.367 11.016,105.063 0,13.554 -6.769,24.574 -16.098,25.418 -9.312,0 -16.945,-10.168 -17.789,-23.723 0,-2.535 2.539,-50.84 4.235,-76.25 0,-1.695 0.844,-4.238 0,-5.937 0,-3.391 -0.852,-7.625 -1.696,-11.012 -2.539,18.637 -5.925,37.281 -9.316,55.918 -3.398,17.793 -6.781,35.586 -11.016,53.383 -1.695,9.316 -5.089,18.644 -10.171,26.265 2.543,12.713 -5.082,21.173 -14.407,22.883 -8.468,1.69 -15.25,-0.85 -20.332,-5.09 -5.929,-4.24 -11.008,-13.558 -11.867,-20.336 -1.687,-9.312 0,-18.64 1.695,-27.965 3.399,-22.027 5.094,-44.054 7.633,-66.086 1.696,-12.714 3.387,-24.57 4.235,-37.277 -3.391,5.926 -5.93,11.863 -8.469,18.637 -19.488,43.219 -39.828,87.281 -60.16,130.487 -0.844,0 0,0 0,0 v 0 c 8.465,-19.491 17.793,-38.975 26.257,-59.315 -10.16,18.648 -18.636,38.98 -27.953,58.465 -5.937,-2.54 -11.015,-5.08 -16.941,-7.622 0.844,0 0,0 0,0 24.562,-56.773 49.141,-112.687 73.703,-169.46 7.633,-17.793 15.254,-35.586 22.887,-53.379 0.844,-0.844 0.844,-2.539 1.695,-3.399 -19.488,41.524 -38.976,83.891 -58.469,125.403 v 0 c 14.407,-31.34 27.961,-62.688 41.52,-94.051 0,-0.836 0.848,-1.696 0.848,-3.387 -17.79,38.133 -36.434,75.414 -54.231,113.539 0,0.844 0,0.844 -0.851,0.844 -1.696,-0.844 -2.54,-0.844 -3.383,-1.695 -11.856,27.964 -33.891,81.351 -34.742,83.039 -5.926,11.858 -16.942,18.648 -26.27,15.258 -10.16,-1.7 -11.863,-14.407 -10.16,-23.731 1.695,-6.774 4.234,-13.555 6.777,-20.332 2.539,-6.781 5.078,-14.406 8.477,-21.188 0.843,-1.695 1.695,-3.386 1.695,-5.925 0.844,-1.696 0.844,-4.235 2.539,-5.93 -5.086,6.773 -11.867,10.16 -16.949,8.469 -6.781,-2.539 -8.477,-13.563 -5.93,-24.567 -5.086,6.774 -11.012,10.16 -16.101,7.621 -6.778,-2.543 -8.473,-14.402 -3.387,-27.117 0,0 0,-0.847 0.844,-0.847 0.859,-0.848 0.859,-1.692 1.703,-3.387 5.082,-12.711 10.16,-25.414 15.246,-38.125 -4.234,6.777 -7.625,13.558 -11.867,20.332 -0.84,1.695 -1.684,2.543 -2.539,3.387 -2.543,2.539 -5.926,3.402 -9.317,1.695 -2.539,-1.695 -5.082,-4.235 -5.082,-7.621 0,-1.696 0.848,-3.391 0.848,-5.082 0.848,-1.692 1.695,-3.395 1.695,-4.246 7.617,-18.637 15.25,-35.578 22.871,-54.223 15.254,-36.43 30.504,-72.02 46.602,-108.457 10.172,-22.027 19.488,-44.906 29.66,-66.934 0.844,-1.691 1.691,-2.539 1.691,-4.23 -11.863,24.562 -22.875,49.137 -34.742,73.711 14.41,-33.047 28.817,-66.942 43.219,-99.137 0.836,-0.848 0.836,-1.691 0.836,-3.387 -2.539,0.848 -4.234,0.848 -5.93,1.696 -1.687,0.843 -4.23,0.843 -5.926,1.691 -1.687,0.848 -43.211,21.18 -46.601,22.887 -11.016,5.926 -143.195,61.844 -148.274,64.39 -0.847,0 -1.691,0.848 -1.691,0.848 -16.102,6.777 -20.332,-8.476 -18.648,-12.711 -5.082,1.695 -11.012,4.235 -16.95,5.93 -5.925,1.691 -16.941,5.933 -16.941,5.933 -2.547,0.848 -6.777,-2.546 -8.473,-7.628 -0.843,-2.54 -1.695,-5.93 -0.843,-7.625 -6.786,1.695 -13.559,3.39 -19.5,5.929 -3.383,0.852 -6.77,2.539 -11.004,3.391 -3.387,0.844 -7.621,1.691 -11.868,2.547 -4.23,0.84 -8.472,1.695 -12.707,0.84 -4.238,-0.84 -9.316,-1.696 -12.7066,-5.082 -3.3906,-3.391 -3.3906,-8.477 -2.5469,-13.559 0.8438,-4.234 3.3984,-8.469 5.9375,-12.711 0.844,-0.848 1.691,-2.539 2.539,-3.391 0.848,-0.843 1.691,-1.691 2.539,-3.382 0.848,-0.848 2.543,-2.543 3.387,-3.387 1.707,-0.852 2.551,-2.539 4.246,-3.391 1.691,-0.855 3.387,-1.695 5.082,-3.394 1.691,-0.848 3.383,-2.543 5.926,-3.387 1.699,-0.852 4.246,-2.539 6.785,-3.391 2.535,-0.843 5.082,-1.691 7.621,-2.539 2.539,-0.847 5.086,-1.691 8.477,-2.539 0.847,0 1.695,-0.847 1.695,-0.847 -3.402,0.847 -5.942,0.847 -9.328,1.695 -1.696,-7.633 -5.078,-17.793 -5.078,-17.793 v 0 c 0,0 126.25,-54.234 190.644,-80.496 -37.289,11.855 -75.414,23.722 -112.699,35.586 -12.707,4.234 -25.414,7.625 -37.273,11.867 -24.575,7.621 -51.692,14.394 -80.5005,18.637 -7.6211,0.843 -15.2461,1.695 -22.8711,1.695 -3.3906,0 -7.6211,0.844 -11.0234,1.691 -3.3867,0.848 -7.6211,0.848 -11.0039,1.696 -1.6953,0 -3.3868,0 -5.0938,0.843 -1.6914,0.848 -3.3867,0.848 -5.0781,1.696 -7.6328,2.539 -16.0977,5.09 -23.7305,7.633 -1.6914,0 -2.539,0.843 -4.2304,0.843 H 12.3047 C 7.22656,616.918 2.13281,611.84 0.449219,605.055 -1.25,598.277 2.13281,591.496 6.375,590.645 h 0.85156 0.84375 c 11.85549,-1.688 22.87889,-2.54 33.89449,-4.231 2.5391,0 5.0821,-1.695 7.629,-2.539 7.625,-2.539 16.1015,-5.09 23.7226,-7.633 -1.6953,-3.383 -2.543,-7.621 -3.3906,-11.008 -0.8477,-2.546 -1.6953,-5.933 -2.5391,-8.476 0,-0.848 0,-0.848 -0.8594,-1.692 8.4766,-2.546 16.9571,-5.086 25.4258,-7.632 60.1599,-17.789 120.3199,-35.582 179.6249,-53.371 -1.695,-5.086 -3.387,-10.176 -5.078,-15.254 -18.645,5.941 -37.281,12.714 -55.918,19.488 -9.328,3.379 -18.648,6.777 -27.965,9.316 -18.637,5.93 -38.98,13.555 -57.621,19.485 0,0 -1.695,0.847 -0.848,0 0.848,-0.84 2.54,-0.84 3.395,-1.692 16.094,-5.926 32.191,-11.015 48.293,-16.941 7.625,-2.539 16.098,-5.93 23.727,-8.469 0.847,0 2.542,-0.859 3.386,-1.699 -7.621,1.699 -15.25,4.238 -22.871,6.777 -15.254,4.231 -29.656,9.317 -44.914,13.555 -7.621,2.539 -15.246,5.09 -22.023,7.629 -8.477,2.539 -16.1097,5.926 -24.5746,8.476 -4.2344,1.688 -11.8672,4.235 -21.1797,7.618 -9.3242,5.937 -22.8828,11.019 -35.5937,15.253 -0.8438,0 -1.6953,0.844 -2.5391,0.844 -4.2344,0.852 -8.4726,-2.539 -10.1601,-8.469 -1.7071,-5.933 0,-11.011 4.2304,-12.707 0.8438,0 1.6953,0 1.6953,0 1.6914,0 1.6914,-0.851 3.3828,-0.851 31.3555,-8.477 61.8555,-17.793 92.3597,-26.27 3.386,-0.847 6.781,-1.687 9.328,-2.539 15.246,-5.078 31.348,-11.011 45.746,-16.09 -7.621,1.692 -15.254,4.231 -22.875,5.93 v 0 c 10.168,-2.551 19.484,-5.09 29.656,-8.476 5.082,-1.692 9.317,-3.379 13.551,-5.09 5.086,-1.676 9.32,-3.379 13.559,-5.078 18.648,-6.778 37.285,-12.715 55.921,-19.481 18.645,-6.785 37.282,-12.715 55.93,-19.492 18.637,-5.938 37.277,-12.703 55.918,-19.484 -45.758,-41.524 -92.359,-83.047 -133.875,-129.637 -7.625,-8.477 -15.246,-17.793 -22.035,-27.121 -0.844,-0.836 -1.688,-2.547 -2.539,-3.387 -1.692,-1.699 -4.234,-3.391 -5.926,-5.09 0,0 -10.172,-7.613 -11.867,-10.152 -1.691,-2.539 0.851,-8.481 5.93,-11.867 5.089,-3.399 11.019,-4.239 13.558,-1.7 v 0 0 0 0 c 2.539,5.086 5.938,9.317 8.477,14.403 0.847,0.851 1.695,2.551 2.539,3.39 0.847,0.852 1.695,1.7 3.387,2.539 2.543,1.7 4.234,3.387 6.785,5.086 60.148,48.293 119.465,95.743 179.629,144.883 0.843,0.86 2.539,2.551 3.382,2.551 l 1.696,-0.84 c 1.691,-0.851 4.23,-1.711 5.926,-1.711 -14.403,-15.242 -28.809,-30.496 -42.36,-46.59 -3.387,-4.238 -6.781,-7.629 -11.015,-11.867 -6.778,-7.625 -14.403,-15.254 -21.18,-23.73 -3.391,-4.227 -6.781,-7.617 -10.172,-11.864 0.852,0 1.695,1.707 2.539,1.707 -25.41,-27.117 -77.937,-79.656 -77.937,-79.656 1.683,-1.679 2.539,-2.539 4.234,-4.238 -11.867,-11.016 -24.578,-22.871 -37.293,-33.887 0.851,-0.851 2.551,-2.539 3.391,-3.39 -5.082,-4.227 -10.165,-8.473 -15.247,-12.704 -0.843,-0.847 -2.546,-1.699 -2.546,-1.699 -2.539,-2.539 -0.844,-9.316 4.242,-15.254 4.234,-5.078 9.316,-8.468 12.711,-7.617 v 0 c -8.477,-8.476 -18.649,-17.805 -27.117,-26.269 -0.852,-0.848 -3.387,-3.387 -4.231,-4.239 -2.539,-3.39 -4.242,-11.867 -2.539,-16.941 0,-0.863 0.836,-3.402 2.539,-4.2422 C 203.801,93.293 197.02,88.207 190.25,82.2773 c -0.859,-0.8398 -1.703,-1.6992 -1.703,-1.6992 -1.695,-2.539 -0.848,-6.7773 2.539,-11.0156 3.394,-4.2383 8.477,-6.7773 11.019,-5.0898 v 0 c 0,-1.6875 0,-4.2266 1.696,-6.7657 2.539,-3.3906 5.078,-5.0898 7.625,-4.2461 0.847,0 0.847,0 0.847,0 0.848,0 0.848,0.8555 0.848,0.8555 23.719,18.6328 46.602,37.2774 69.477,55.9176 7.629,5.93 16.097,12.707 23.726,18.645 -7.629,-10.164 -14.414,-21.184 -22.031,-30.5079 -0.852,-0.8516 -1.695,-1.6992 -2.547,-2.5391 -3.383,-3.3906 -6.769,-5.9297 -9.308,-9.3164 -6.79,-6.789 -12.715,-12.7148 -19.5,-18.6406 -5.083,-5.0898 -11.008,-11.0195 -16.098,-16.0977 -0.844,-0.8476 -3.387,-2.5468 -3.387,-2.5468 -5.078,-5.9297 -5.078,-14.4063 0,-19.4922 v 0 c 0,0 0,0 0.848,0 0,0 0.844,0 0.844,-0.8399 0,0 0.851,0 0.851,-0.8476 h 0.844 0.848 0.847 0.844 0.851 0.844 0.856 0.84 0.851 0.852 0.843 c 0,0 0.852,0 0.852,0.8476 0,0 0.844,0 0.844,0.8399 0,0 0.843,0 0.843,0.8515 l 0.852,0.8477 0.844,0.8398 0.847,0.8516 v 0 c 0,0 0,0 0,0.8477 0,0 0,0 0,0.8476 0,0 0,0 0.848,0.8438 0,0 0,0.8554 0.848,0.8554 0,0 0,0.8516 0.844,0.8516 0,0 0,0.8398 0.847,0.8398 l 0.848,0.8477 0.847,0.8516 0.848,0.8398 0.856,0.8477 0.839,0.8515 0.844,0.8477 c 0,0.8398 0.856,0.8398 0.856,1.6914 0,0.8516 0.847,0.8516 0.847,1.6875 0,0.8516 0.844,0.8516 0.844,1.7109 0,0.8399 0.852,0.8399 0.852,1.6914 0,0.8477 0.843,0.8477 0.843,1.6875 0,0.8477 0.844,0.8477 0.844,1.6914 0,0.8555 0.852,0.8555 0.852,1.7071 0,0.8398 0.843,0.8398 0.843,1.6875 0,0.8515 0.852,0.8515 0.852,1.6914 0,0.8476 0.844,0.8476 0.844,1.6992 0,0.8477 0.847,0.8477 0.847,1.6875 0,0.8516 0.848,0.8516 0.848,1.6992 0,0.8399 0.844,0.8399 0.844,1.6914 0,0.8516 0.859,0.8516 0.859,1.6992 0,0.8516 0.836,0.8516 0.836,1.6914 0,0.8477 0.86,0.8477 0.86,1.6954 0,0.8515 0.832,0.8515 0.832,1.6992 0,0.8398 0.851,0.8398 0.851,1.6914 0,0.8476 0.856,0.8476 0.856,1.6992 0,0.8398 0.836,0.8398 0.836,1.6875 0,0.8516 0.859,0.8516 0.859,1.6914 0,0.8477 0.844,0.8477 0.844,1.6992 0,0.8477 0.847,0.8477 0.847,1.6875 0,0.8633 0.848,0.8633 0.848,1.711 0,0.8281 0.844,0.8281 0.844,1.6914 0,0.8476 0.847,0.8476 0.847,1.6953 0,0.8437 0.844,0.8437 0.844,1.6914 0,0.8476 0.852,0.8476 0.852,1.6875 2.539,3.3906 5.078,7.6289 8.476,10.1798 3.391,2.539 5.93,5.926 9.317,9.312 9.32,9.329 18.636,17.805 27.961,27.121 9.316,9.305 18.64,17.782 27.953,27.11 3.398,3.387 5.937,5.926 9.324,9.316 5.93,5.93 12.711,11.864 18.648,17.793 3.391,3.399 5.926,5.938 9.317,9.324 5.937,5.93 12.711,11.86 18.636,17.793 9.329,9.329 18.637,17.793 27.965,27.11 1.696,1.703 3.391,3.39 4.235,4.242 4.242,4.234 9.324,9.312 14.402,13.551 3.391,3.39 5.938,5.929 9.316,9.316 1.707,1.699 3.399,2.539 5.09,4.25 10.164,8.469 20.336,16.934 30.508,24.559 11.859,9.328 23.715,19.496 35.578,28.82 C 456.293,244.965 373.262,159.379 291.074,72.9492 l -0.847,-0.8398 c 0,0 0,0 -0.856,-0.8555 0,0 0,0 0.856,0.8555 22.875,22.8711 46.605,45.7536 69.476,68.6246 14.402,14.403 28.809,28.809 43.207,43.223 8.477,8.469 16.953,17.793 25.418,26.27 11.867,11.855 22.883,23.718 33.895,34.738 22.879,22.871 45.757,46.59 68.629,69.469 11.019,11.015 22.035,22.035 33.05,33.046 0,0 0.848,0.84 1.696,1.692 0.847,-1.692 1.691,-3.391 2.543,-5.078 0.843,-1.699 0.843,-3.399 0.843,-5.086 0.844,-4.242 1.696,-8.469 2.539,-12.707 4.235,-37.285 10.172,-92.356 11.02,-96.602 1.695,-14.402 4.234,-29.648 6.773,-44.054 5.082,-33.895 28.813,-167.77 33.047,-176.23484 1.696,-4.23828 5.93,-9.3281287 11.016,-9.3281287 5.082,-0.8437503 11.019,5.0898487 11.863,10.1796687 0.844,6.7696 -1.691,13.5469 -1.691,20.3281 0,16.9415 0,33.8829 0,50.836 0,5.0898 0,10.168 0,15.2461 0,9.3281 -0.848,18.6411 -1.703,27.9691 -1.692,18.632 -4.235,37.277 -6.774,55.918 -0.844,5.086 -3.39,34.738 -3.39,38.972 29.66,-57.613 88.968,-173.6872 88.968,-173.6872 1.688,-1.7032 5.93,-1.7032 11.86,0 5.082,2.539 9.324,5.9257 8.48,8.4726 v 0 c -23.73,58.4566 -47.453,117.7776 -71.183,175.3826 16.097,-20.332 31.351,-41.515 46.601,-62.695 0.852,-1.699 1.695,-2.539 2.543,-4.238 0.848,-1.7 1.699,-3.387 1.699,-5.078 9.321,-22.883 19.481,-44.915 29.653,-66.0942 -12.711,22.0312 -23.723,44.9142 -33.895,68.6332 v 0 c 6.789,-16.102 12.715,-32.2 19.496,-48.301 6.774,-15.2541 15.246,-30.5002 23.723,-44.0627 4.234,-6.7695 8.469,-13.5469 13.551,-20.332 3.39,-4.2305 8.476,-9.3243 12.711,-12.7071 4.242,-3.3867 11.863,-6.7734 19.496,-5.0859 4.23,0.8515 7.617,3.3906 10.16,6.7851 2.551,3.3907 4.242,7.6172 3.394,12.7071 0,5.0859 -1.699,9.3164 -3.394,13.5547 5.09,1.6875 9.32,4.2382 14.402,6.7773 0.848,0 1.696,0 1.696,0.8477 -9.317,19.4921 -19.489,39.8238 -27.961,59.3088 -9.321,19.492 -19.489,39.824 -27.957,59.316 -9.325,19.481 -18.637,39.813 -27.961,59.317 -9.321,19.484 -19.489,38.964 -28.813,58.457 3.387,-1.7 7.629,-2.539 11.02,-3.387 41.519,-86.43 83.879,-172.004 126.25,-257.5782 v 0 C 816.402,131.418 776.57,216.145 736.746,300.883 c 44.91,-14.406 89.817,-29.66 135.574,-44.067 v 0 c -22.882,8.469 -45.757,16.094 -68.636,24.571 -22.879,8.468 -45.75,16.105 -68.629,23.722 v 0 c -2.543,5.086 -5.082,11.016 -7.621,16.106 20.332,-6.781 40.664,-12.707 60.996,-19.496 2.547,-0.836 5.933,-1.688 8.472,-2.539 29.661,-9.325 59.321,-17.793 88.977,-26.27 5.93,-1.687 11.855,-3.387 17.789,-5.926 11.855,-3.39 22.875,-7.629 34.738,-11.015 11.867,-4.239 22.871,-7.617 33.895,-11.856 8.476,-3.398 16.941,-5.937 25.418,-9.328 2.541,-1.687 5.931,-3.387 5.931,-3.387 0.85,0 0.85,0 1.69,0 v 0 0 c 5.93,0 14.41,11.016 18.64,25.418 5.09,16.094 3.39,31.352 -2.54,33.039 0,0 -3.39,0.86 -4.23,0.86 1.69,6.777 0.84,12.707 -3.39,13.555 0,0 -96.593,31.347 -143.195,45.75 -6.781,1.691 -13.559,4.23 -20.344,5.929 -26.258,8.477 -53.379,16.942 -79.644,24.571 2.543,0 5.933,0 8.48,0 5.078,-1.692 42.367,-13.555 53.371,-16.946 19.5,-5.926 38.137,-11.863 56.774,-17.793 17.793,-5.937 54.222,-17.793 55.074,-17.793 0,0 0.855,0 1.695,0 1.699,0.852 3.383,2.551 4.242,5.09 0.844,3.391 0.844,5.93 0,7.617 0,0 0,0.852 -0.859,0.852 -0.836,0 -0.836,0 -0.836,0 -5.094,1.687 -10.172,3.394 -15.254,5.086 -17.801,5.926 -35.59,11.867 -53.383,18.64 -11.855,4.231 -23.718,8.469 -35.586,11.868 -4.234,1.687 -8.464,2.539 -12.71,4.226 126.25,3.391 250.805,11.867 203.355,20.332 M 22.4766,537.273 c -0.8438,-0.851 0,-0.851 0.8476,-0.851 0.8438,0 1.6953,0 1.6953,-0.844 16.0977,-4.234 33.043,-9.32 48.2969,-13.558 0.8438,0 0.8438,-0.852 1.6875,0 -17.7851,4.238 -34.7344,10.164 -52.5273,15.253 v 0 m 766.8084,-5.089 c 0,0 0.848,0 0,0 0.848,0 0.848,0 0,0"
         style="fill:#6b3fa2;fill-opacity:1;fill-rule:nonzero;stroke:none"
         id="path12" />
      <path
         d="m 1435.78,590.645 c 55.92,-16.942 93.2,-43.211 93.2,-101.668 0,-69.485 -64.39,-115.235 -133.03,-115.235 -59.31,0 -114.39,24.571 -147.43,66.942 l 42.36,49.992 c 32.2,-38.133 66.94,-55.071 106.77,-55.071 32.2,0 61.84,15.239 61.84,45.743 0,23.726 -12.69,36.441 -43.2,44.91 l -61.86,18.637 c -51.68,15.25 -87.27,41.519 -87.27,97.437 0,59.316 53.38,109.305 127.1,109.305 54.23,0 99.13,-20.336 128.79,-51.684 l -39.83,-52.527 c -25.42,26.258 -55.07,42.355 -89.82,42.355 -33.03,0 -55.91,-17.793 -55.91,-42.355 0,-21.196 14.4,-32.199 39.82,-39.832 l 58.47,-16.949"
         style="fill:#6b3fa2;fill-opacity:1;fill-rule:nonzero;stroke:none"
         id="path14" />
      <path
         d="m 1696.74,433.898 c 37.29,0 62.7,31.36 62.7,66.938 0,34.742 -25.41,66.937 -62.7,66.937 -37.28,0 -62.69,-31.351 -62.69,-66.937 0,-35.578 24.56,-66.938 62.69,-66.938 m -61,154.207 h 0.85 c 11.86,20.333 38.98,38.125 72.86,38.125 64.4,0 115.24,-51.683 115.24,-126.234 0,-73.715 -50.84,-126.254 -115.24,-126.254 -33.88,0 -61.85,18.641 -72.86,38.977 h -0.85 V 284.777 h -66.94 v 335.528 h 66.94 v -32.2"
         style="fill:#6b3fa2;fill-opacity:1;fill-rule:nonzero;stroke:none"
         id="path16" />
      <path
         d="m 2006.87,484.75 -44.92,-4.242 c -28.81,-2.547 -47.45,-10.172 -47.45,-29.664 0,-16.946 16.95,-26.262 36.45,-26.262 30.49,0 55.92,19.492 55.92,53.379 z m -56.78,39.809 56.78,4.238 c 0,24.574 -16.96,39.824 -50.85,39.824 -25.41,0 -51.68,-11.863 -69.48,-24.574 l -22.88,49.144 c 21.18,15.247 61.86,33.039 104.22,33.039 66.94,0 104.21,-39.816 104.21,-100.824 V 380.52 h -64.38 v 30.507 h -0.84 c -7.64,-15.254 -35.59,-36.433 -70.34,-36.433 -47.45,0 -83.88,26.265 -83.88,73.707 0,47.453 47.45,72.027 97.44,76.258"
         style="fill:#6b3fa2;fill-opacity:1;fill-rule:nonzero;stroke:none"
         id="path18" />
      <path
         d="M 2189.87,502.535 V 380.52 h -66.93 v 239.785 h 66.93 v -40.672 h 0.85 c 9.33,25.422 33.9,44.906 61.86,44.906 5.08,0 11.86,-0.848 16.09,-1.695 v -69.473 c -6.78,2.539 -16.09,4.234 -26.27,4.234 -31.35,0.844 -52.53,-21.183 -52.53,-55.07"
         style="fill:#6b3fa2;fill-opacity:1;fill-rule:nonzero;stroke:none"
         id="path20" />
      <path
         d="M 2375.44,502.535 V 380.52 h -66.93 v 365.191 h 66.93 V 515.242 l 93.19,105.063 h 77.95 L 2446.6,510.152 2549.98,380.52 h -81.35 l -93.19,122.015"
         style="fill:#6b3fa2;fill-opacity:1;fill-rule:nonzero;stroke:none"
         id="path22" />
      <path
         d="m 2586.42,510.152 h 27.11 v 60.161 c 0,3.39 0.85,7.625 1.69,11.023 0.84,3.383 2.54,6.769 5.08,9.309 1.69,2.546 5.08,5.085 7.62,6.781 3.39,1.703 6.79,2.547 11.87,2.547 4.24,0 7.63,-0.844 11.02,-2.547 2.54,-1.696 5.08,-4.235 5.93,-6.781 1.69,-2.54 2.55,-5.926 3.39,-9.309 0.85,-3.398 0.85,-6.789 0.85,-10.172 v -61.012 h 27.12 v 68.633 c 0,5.934 -0.86,11.016 -2.55,16.098 -1.7,5.09 -4.24,10.172 -7.63,14.406 -3.39,4.242 -7.63,7.629 -12.71,10.172 -5.08,2.539 -11.02,3.383 -18.64,3.383 -8.47,0 -15.25,-1.692 -21.19,-5.926 -5.93,-4.234 -10.16,-9.324 -12.69,-14.406 h -0.86 v 17.793 h -25.41 z m 117.76,0 h 94.9 v 22.032 h -61.84 l 59.3,63.546 v 24.575 h -88.97 v -22.028 h 56.78 l -59.32,-63.543 v -24.582 h -0.85"
         style="fill:#6b3fa2;fill-opacity:1;fill-rule:nonzero;stroke:none"
         id="path24" />
    </g>
  </g>
</svg>
