<?xml version="1.0" encoding="utf-8"?>
<!-- Generator: Adobe Illustrator 19.2.1, SVG Export Plug-In . SVG Version: 6.00 Build 0)  -->
<svg version="1.1" id="layer" xmlns="http://www.w3.org/2000/svg" xmlns:xlink="http://www.w3.org/1999/xlink" x="0px" y="0px"
	 viewBox="0 0 652 652" style="enable-background:new 0 0 652 652;" xml:space="preserve">
<style type="text/css">
	.st0{fill:#1378C6;}
	.st1{fill:#FFFFFF;}
</style>
<path id="path0_fill" class="st0" d="M620.5,230.9c0-29.3-24.2-53.3-53.8-53.3H74.3c-29.6,0-53.8,23.9-53.8,53.3v182.2
	c0,29.3,24.2,53.3,53.8,53.3h492.4c29.6,0,53.8-23.9,53.8-53.3V230.9z"/>
<path id="path1_fill" class="st1" d="M512.9,255.6c0-7.3,5.9-13.3,13.2-13.3c7.2,0,13.2,6,13.2,13.3c0,7.3-5.9,13.5-13.2,13.5
	C518.8,269,512.9,263,512.9,255.6z M536.9,255.6c0-6-4.9-11-10.8-11c-6,0-10.8,5-10.8,11s4.9,11.2,10.8,11.2
	C532,266.8,536.9,261.7,536.9,255.6z M521.6,249.2h4.9c2.6,0,4.3,1.1,4.3,3.2c0,1.9-0.9,2.8-2.3,3.6l3,5.2l-3.2,0.4l-2.6-5h-1.3v4.9
	h-3v-12.1H521.6z M524.6,254.8h1.1c1.5,0,2.1-1.1,2.1-2.1c0-1.3-0.9-1.7-1.9-1.7h-1.3V254.8z"/>
<path id="path2_fill" class="st1" d="M553.9,395.2H518l-14-40.6h-52.1c-15.3,12.9-32.9,15.1-32.9,15.1l51.4-125h26.4L553.9,395.2z
	 M460.8,334.6h38.1L480.2,278L460.8,334.6z"/>
<path id="path3_fill" class="st1" d="M132.6,397.8c-17.7,0-34.4-5.6-44.7-15.1l-0.6-0.6l11.9-18.5l0.8,0.6
	c8.5,6.2,17.4,11.8,30.2,11.8c10.4,0,22.5-5.2,22.5-19.6c0-12.9-13.2-22.2-24.7-30.6c-19.8-14.2-34.2-25.6-34.2-46.5
	c0-20.7,21.3-37,48.5-37c18.3,0,31.9,6.7,38.5,13.3l0.6,0.6l-11.7,16.8l-0.8-0.6c-4.7-3.2-14-8.4-23.8-8.4
	c-11.3,0-18.5,5.8-18.5,14.8c0,8.6,9.4,16.1,27.8,30.3c20,15.3,31.2,28.4,31.2,47.5C185.5,376.8,165.7,397.8,132.6,397.8z"/>
<path id="path4_fill" class="st1" d="M236.3,395.2h-32.1V244.9h48.1c35.9,0,55.7,15.5,55.7,43.7c0,17.4-10.2,40.9-38.3,48
	c-14.5,3.6-26.8-4.7-24.2-18.7c16.2,1.5,30.6-7.7,30.6-28.2c0-15-9.6-23-27-23h-12.6v128.4H236.3z"/>
<path id="path5_fill" class="st1" d="M404.5,242.3c-25.9,0-48.1,8.2-64.4,23.5c-15.3,14.4-23.6,34-23.6,54.9c0,15.5,4,30.6,11.3,43
	c6.6,10.8,16.6,20.2,28.9,26.9c13.2,7.3,28.5,11,44.2,11c0.4,0,0.8,0,1.1,0c33.2-0.4,55.1-16.4,58.1-27.8c1.3-4.9-0.4-8.8-4.9-11.2
	l-0.8-0.6l-0.8,0.6c-15.7,13.1-32.9,15.9-44.6,15.9c-8.7,0-17.2-1.5-24.7-4.3c-20-7.5-32.5-28.2-32.5-52.9
	c0-32.7,21.1-54.8,52.7-54.8c13.4,0,26.4,6,30,7.8l1.3,0.7l0.6-1.3l7.9-19.2l0.4-1.1l-1.1-0.7C434.9,247.9,420.7,242.3,404.5,242.3z
	"/>
</svg>
