<?xml version="1.0" encoding="utf-8"?>
<!-- Generator: Adobe Illustrator 26.3.1, SVG Export Plug-In . SVG Version: 6.00 Build 0)  -->
<svg version="1.1" id="Layer_1" xmlns="http://www.w3.org/2000/svg" xmlns:xlink="http://www.w3.org/1999/xlink" x="0px" y="0px"
	 viewBox="0 0 586.3 537.7" style="enable-background:new 0 0 586.3 537.7;" xml:space="preserve">
<style type="text/css">
	.st0{fill:#FFFFFF;stroke:#232563;stroke-width:15;stroke-miterlimit:10;}
	.st1{fill:none;stroke:#80BF90;stroke-width:15;stroke-miterlimit:10;}
	.st2{fill:none;stroke:#603913;stroke-width:15;stroke-miterlimit:10;}
	.st3{fill:none;stroke:#231F20;stroke-width:15;stroke-miterlimit:10;}
	.st4{fill:#281F10;}
	.st5{fill:#006838;}
	.st6{fill:none;stroke:#006838;stroke-width:4;stroke-miterlimit:10;}
	.st7{fill:none;stroke:#8DC63F;stroke-width:15;stroke-miterlimit:10;}
</style>
<ellipse class="st0" cx="293.2" cy="268.8" rx="291.2" ry="266.8"/>
<path class="st1" d="M136,227c-5-2.5-26-13.8-34.3-38.5c-1.2-3.5-10.8-33.7,6.8-54.4c5.9-7,12.5-10.4,15.4-11.5
	c26.9-10.3,53.6-4,69.1,13.6c17.2,19.5,20.5,48.3,6.9,71.3"/>
<path class="st1" d="M204,227c0,0,54.2-109.2,61.2-81.7s-17.9,114.9-17.9,114.9"/>
<path class="st1" d="M129.7,246c-31.5-20.4-52.9-35.6-68-46.9c-3.5-2.6-7.7-5.8-9-4.8c-5.8,4.8,58.5,92.3,58.5,92.3l0,0"/>
<path class="st2" d="M287.5,126c0,0,9.5,71.4,67,33.4c23.7-15.7,27.9-27.8,24.5-36.5c-4.7-12.5-24.5-18.3-24.5-18.3L287.5,126
	L287.5,126z"/>
<path class="st2" d="M380,115.1c5.2-0.4,10.3-0.9,15.5-1.4c15.4-2,22.3,1.7,25.8,5.2c4,4,9.2,13.5,9,13.2l0,0
	c19.7,1.8,39.5,3.6,59.2,5.4l0,0c0,0-2.1,24-62.2,27.7c-15.2,0.9-24.1,5.7-29,12.3c-10,13.6-2,37,6.8,55.2"/>
<line class="st2" x1="306.2" y1="164.2" x2="287.5" y2="255.4"/>
<path class="st3" d="M494.3,377.5c4.5-1.9,9.4-1.1,13.4-4.3c10.5-37.1,9.7-75.8,9.7-113.8c-0.8-12.9-1.6-25.8-3.2-39.5
	c-0.8-6.4-4-11.3-8.1-16.1c-1.6-1.6-4-2.4-5.6-4c-24.2-13.7-53.2-11.3-78.7-6"/>
<path class="st3" d="M69.2,264.6c-1.2,1.3-2.8,2.1-4.4,3.8c-7.3,8.1-10.5,20.2-4.8,30.7c21,33.1,36.3,66.1,46,103.3
	c1.6,5.6,4,10.5,7.3,15.3c4.8,7.3,12.1,11.3,20.2,13.7c3.2,0,5.6,0.8,8.9,1.6c10.5,1.6,21,0.8,31.5,0c37.9-4.8,73.4-12.1,111.3-18.5
	c54-8.9,104.1-16.9,156.7-26.6"/>
<path class="st3" d="M492.6,230.5c-40.1,25.5-98.7,54.9-173.4,67.8c-22,3.8-42.7,5.7-61.8,6.4c-20.3,0.9-41.6,1.2-63.9,0.7
	c-35.1-0.7-68-3.2-98.1-6.7"/>
<path class="st4" d="M482.7,143.8c-0.8,0.3-2.3,0.6-3.8,0c-2.3-1.1-3.6-4.6-2.5-8.3c0.1-1.4,1.3-2.4,2.7-2.3l13.7,1.1
	c1.2,0.2,1.6,0.8,1.8,1c0.8,1.3-0.2,3.8-2.8,5.9L482.7,143.8L482.7,143.8z"/>
<path class="st4" d="M404.6,122.6L404.6,122.6c1.3,0,2.4,0.8,2.4,1.8v10c0,1-1.1,1.8-2.4,1.8l0,0c-1.3,0-2.4-0.8-2.4-1.8v-10
	C402.2,123.3,403.3,122.6,404.6,122.6z"/>
<path class="st5" d="M121.4,154.1L121.4,154.1c1.2-0.4,2.6,0,3.1,0.8l5.7,9c0.6,0.9,0.1,1.9-1.1,2.4l0,0c-1.2,0.4-2.6,0-3.1-0.8
	l-5.7-9C119.7,155.6,120.2,154.6,121.4,154.1z"/>
<path class="st5" d="M157.6,145.8L157.6,145.8c1.1-0.4,2.5,0,3,0.8l5.4,9c0.5,0.9,0.1,1.9-1.1,2.4l0,0c-1.1,0.4-2.5,0-3-0.8l-5.4-9
	C156,147.3,156.5,146.2,157.6,145.8z"/>
<path class="st6" d="M139.9,188.2l36.2-12.1c0,0,14.2,26.9,0,31.3S139.9,188.3,139.9,188.2L139.9,188.2z"/>
<path class="st7" d="M443,396c-14.7-40.4-31.1-52.2-43.9-55.2c-7.2-1.7-18.8-1.9-18.7-2.6c0-1,18.7-0.9,18.7-0.9
	c4.8-0.4,28.9-1.8,49.4,15.9c16.4,14.1,20.7,31.9,21.9,37.7"/>
<path class="st7" d="M449.9,354.3c-0.9-4.4-4.5-23.6,7-42c9-14.5,22.1-20.2,28.1-22.8c2.7-1.2,9.6-4.2,11-2.3
	c2,2.6-9.9,9.9-13.8,23.2c-3.4,11.3,1.6,18.3,6.6,39.5c2,8.4,4.4,20.6,5.5,36.1"/>
</svg>
